# xmcd CD database file
#
# Track frame offsets:
#	150
#	12562
#	26505
#	38410
#	45602
#	65190
#	71927
#	84765
#	99297
#	115332
#	128827
#	149330
#	159347
#
# Disc length: 2390 seconds
#
# Revision: 6
# Processed by: cddbd v1.5.2PL0 Copyright (c) Steve Scherf et al.
# Submitted via: CDex 1.51
#
DISCID=aa09540d
DTITLE=Dobes Pavel - Zatisi s cervy
DYEAR=1990
DGENRE=Folk
TTITLE0=Optimisticka
TTITLE1=O lese
TTITLE2=Blazek
TTITLE3=Vichrice
TTITLE4=Puerto Montt
TTITLE5=Zatisi s cervy
TTITLE6=Jihocesky devcata
TTITLE7=Ach, ta rana
TTITLE8=Oko ztratis ve chvili, kdyz pracujes bez bryli
TTITLE9=Vendelin Prouza
TTITLE10=Hluchonema zem
TTITLE11=Pojd se mnou, Marie
TTITLE12=Kominik
EXTD=YEAR: 1990
EXTT0=
EXTT1=
EXTT2=
EXTT3=
EXTT4=
EXTT5=
EXTT6=
EXTT7=
EXTT8=
EXTT9=
EXTT10=
EXTT11=
EXTT12=
PLAYORDER=
